<svg version="1.1" id="Layer_1" xmlns="http://www.w3.org/2000/svg" xmlns:xlink="http://www.w3.org/1999/xlink" x="0px" y="0px"
	 width="100%" viewBox="0 0 1431 691" enable-background="new 0 0 1431 691" xml:space="preserve">
<path fill="none" opacity="1.000000" stroke="#000000" stroke-linecap="round" stroke-linejoin="round" stroke-width="2.000000"
	d="
M71.000000,512.000000 
	C64.217850,510.617432 57.301773,511.424316 50.494167,511.284943 
	C44.383862,511.159821 38.158508,511.031494 31.750000,511.631165 
	C31.750000,351.667023 31.750000,191.833511 31.750000,31.750000 
	C487.999878,31.750000 944.499939,31.750000 1401.250000,31.750000 
	C1401.250000,231.333054 1401.250000,431.166534 1401.250000,631.250000 
	C958.333313,631.250000 515.166687,631.250000 71.500000,631.250000 
	C71.500000,523.833862 71.500000,416.666931 71.500000,309.500000 
"/>
<path fill="none" opacity="1.000000" stroke="#000000" stroke-linecap="round" stroke-linejoin="round" stroke-width="2.000000"
	d="
M72.000000,512.000000 
	C73.771812,511.156647 75.661354,511.513672 77.500000,511.513489 
	C219.500000,511.498779 361.500000,511.500000 503.500000,511.500000 
	C558.166687,511.500000 612.833313,511.500000 667.500000,511.500000 
	C911.833313,511.500000 1156.166626,511.500000 1400.500000,511.500000 
"/>
<path fill="none" opacity="1.000000" stroke="#000000" stroke-linecap="round" stroke-linejoin="round" stroke-width="2.000000"
	d="
M52.500000,341.500000 
	C501.833344,341.500000 951.166687,341.500000 1400.500000,341.500000 
"/>
<path fill="none" opacity="1.000000" stroke="#000000" stroke-linecap="round" stroke-linejoin="round" stroke-width="2.000000"
	d="
M1400.500000,201.500000 
	C951.166687,201.500000 501.833344,201.500000 52.500000,201.500000 
"/>
<path fill="none" opacity="1.000000" stroke="#000000" stroke-linecap="round" stroke-linejoin="round" stroke-width="2.000000"
	d="
M1095.000000,59.500000 
	C1088.044556,60.769089 1081.013916,60.492710 1074.000000,60.494545 
	C1032.000000,60.505543 989.976929,59.621948 948.005920,60.726074 
	C897.493713,62.054905 846.998047,60.869366 796.500000,61.500000 
"/>
<path fill="none" opacity="1.000000" stroke="#000000" stroke-linecap="round" stroke-linejoin="round" stroke-width="2.000000"
	d="
M51.500000,32.500000 
	C51.500000,232.000000 51.500000,431.500000 51.500000,631.603210 
	C58.000000,631.172119 64.500000,632.081970 71.000000,631.000000 
"/>
<path fill="none" opacity="1.000000" stroke="#000000" stroke-linecap="round" stroke-linejoin="round" stroke-width="2.000000"
	d="
M71.500000,32.500000 
	C71.500000,122.833336 71.500000,213.166672 71.500000,303.500000 
"/>
<path fill="none" opacity="1.000000" stroke="#000000" stroke-linecap="round" stroke-linejoin="round" stroke-width="2.000000"
	d="
M672.500000,541.000000 
	C669.045105,542.114014 665.491089,541.146179 661.750000,541.605530 
	C661.750000,554.662476 661.750000,567.831238 661.750000,581.250000 
	C671.327698,581.250000 681.163818,581.250000 691.250000,581.250000 
	C691.250000,570.671814 691.250000,559.835876 691.250000,548.570007 
	C688.253296,547.580017 683.979553,547.187134 685.018860,541.954163 
	C680.739197,540.832397 676.752747,542.260071 673.000000,541.000000 
"/>
<path fill="none" opacity="1.000000" stroke="#000000" stroke-linecap="round" stroke-linejoin="round" stroke-width="2.000000"
	d="
M1261.500000,78.500000 
	C1261.500000,140.666672 1261.500000,202.833328 1261.500000,265.044678 
	C1262.727661,266.012451 1264.176636,265.253754 1265.500000,265.500000 
"/>
<path fill="none" opacity="1.000000" stroke="#000000" stroke-linecap="round" stroke-linejoin="round" stroke-width="2.000000"
	d="
M480.500000,61.500000 
	C456.832153,61.500000 433.164307,61.500000 409.000000,61.500000 
	C409.000000,77.163002 409.000000,92.331505 409.000000,107.500000 
"/>
<path fill="none" opacity="1.000000" stroke="#000000" stroke-linecap="round" stroke-linejoin="round" stroke-width="2.000000"
	d="
M1118.000000,59.500000 
	C1124.606201,61.041676 1131.322998,60.472240 1138.000000,60.482372 
	C1165.666626,60.524364 1193.333374,60.500000 1221.000000,60.500000 
	C1224.166626,60.500000 1227.333374,60.500000 1230.500000,60.500000 
"/>
<path fill="none" opacity="1.000000" stroke="#000000" stroke-linecap="round" stroke-linejoin="round" stroke-width="2.000000"
	d="
M509.000000,551.000000 
	C506.728546,552.033142 504.322083,551.176025 501.750000,551.660583 
	C501.750000,564.662476 501.750000,577.831238 501.750000,591.250000 
	C511.327698,591.250000 521.163818,591.250000 531.250000,591.250000 
	C531.250000,583.166687 531.250000,574.833313 531.250000,566.250000 
	C526.333313,566.250000 521.666687,566.250000 516.750000,566.250000 
	C516.750000,561.833313 516.750000,557.166687 516.750000,552.166016 
	C514.859131,550.204346 511.785034,552.574768 509.500000,551.000000 
"/>
<path fill="none" opacity="1.000000" stroke="#000000" stroke-linecap="round" stroke-linejoin="round" stroke-width="2.000000"
	d="
M1106.500000,79.500000 
	C1106.500000,98.333336 1106.500000,117.166664 1106.500000,136.500000 
	C1091.670410,136.500000 1076.835205,136.500000 1062.000000,136.500000 
"/>
<path fill="none" opacity="1.000000" stroke="#000000" stroke-linecap="round" stroke-linejoin="round" stroke-width="3.000000"
	d="
M409.000000,138.500000 
	C409.000000,148.502777 409.000000,158.505554 409.000000,169.000000 
	C433.164307,169.000000 456.832153,169.000000 480.500000,169.000000 
"/>
<path fill="none" opacity="1.000000" stroke="#000000" stroke-linecap="round" stroke-linejoin="round" stroke-width="2.000000"
	d="
M210.500000,122.500000 
	C204.333328,122.500000 198.166672,122.500000 191.500000,122.500000 
	C191.500000,164.498672 191.500000,206.499344 191.500000,248.500000 
"/>
<path fill="none" opacity="1.000000" stroke="#000000" stroke-linecap="round" stroke-linejoin="round" stroke-width="2.000000"
	d="
M1000.500000,136.500000 
	C994.333313,136.500000 988.166687,136.500000 981.500000,136.500000 
	C981.500000,171.498413 981.500000,206.499207 981.500000,241.500000 
"/>
<path fill="none" opacity="1.000000" stroke="#000000" stroke-linecap="round" stroke-linejoin="round" stroke-width="3.000000"
	d="
M590.500000,75.500000 
	C589.088623,77.084778 588.955139,78.947754 588.960876,81.000107 
	C589.023499,103.333267 589.023438,125.666733 588.960815,147.999893 
	C588.955078,150.052246 589.088623,151.915222 590.500000,153.500000 
"/>
<path fill="none" opacity="1.000000" stroke="#000000" stroke-linecap="round" stroke-linejoin="round" stroke-width="2.000000"
	d="
M1261.500000,275.500000 
	C1261.500000,304.000000 1261.500000,332.500000 1261.500000,361.000000 
"/>
<path fill="none" opacity="1.000000" stroke="#000000" stroke-linecap="round" stroke-linejoin="round" stroke-width="2.000000"
	d="
M665.500000,60.500000 
	C665.801453,62.769520 664.026062,61.419903 663.499634,61.422234 
	C642.833374,61.513737 622.166687,61.500000 601.500000,61.500000 
"/>
<path fill="none" opacity="1.000000" stroke="#000000" stroke-linecap="round" stroke-linejoin="round" stroke-width="3.000000"
	d="
M767.500000,169.000000 
	C745.833313,169.000000 724.166687,169.000000 702.500000,169.000000 
"/>
<path fill="none" opacity="1.000000" stroke="#000000" stroke-linecap="round" stroke-linejoin="round" stroke-width="2.000000"
	d="
M110.500000,249.000000 
	C102.663124,249.000000 94.826241,249.000000 86.500000,249.000000 
	C86.500000,263.162598 86.500000,276.831299 86.500000,290.500000 
"/>
<path fill="none" opacity="1.000000" stroke="#000000" stroke-linecap="round" stroke-linejoin="round" stroke-width="2.000000"
	d="
M1261.500000,397.500000 
	C1261.500000,416.500000 1261.500000,435.500000 1261.500000,454.500000 
"/>
<path fill="none" opacity="1.000000" stroke="#000000" stroke-linecap="round" stroke-linejoin="round" stroke-width="3.000000"
	d="
M1061.000000,308.000000 
	C1035.833374,308.000000 1010.666687,308.000000 985.500000,308.000000 
"/>
<path fill="none" opacity="1.000000" stroke="#000000" stroke-linecap="round" stroke-linejoin="round" stroke-width="2.000000"
	d="
M164.500000,266.500000 
	C149.166672,266.500000 133.833328,266.500000 118.500000,266.500000 
"/>
<path fill="none" opacity="1.000000" stroke="#000000" stroke-linecap="round" stroke-linejoin="round" stroke-width="2.000000"
	d="
M864.500000,151.500000 
	C849.166687,151.500000 833.833313,151.500000 818.500000,151.500000 
"/>
<path fill="none" opacity="1.000000" stroke="#000000" stroke-linecap="round" stroke-linejoin="round" stroke-width="2.000000"
	d="
M694.500000,151.500000 
	C679.166687,151.500000 663.833313,151.500000 648.500000,151.500000 
"/>
<path fill="none" opacity="1.000000" stroke="#000000" stroke-linecap="round" stroke-linejoin="round" stroke-width="2.000000"
	d="
M534.500000,151.500000 
	C519.166687,151.500000 503.833344,151.500000 488.500000,151.500000 
"/>
<path fill="none" opacity="1.000000" stroke="#000000" stroke-linecap="round" stroke-linejoin="round" stroke-width="2.000000"
	d="
M164.500000,231.500000 
	C149.166672,231.500000 133.833328,231.500000 118.500000,231.500000 
"/>
<path fill="none" opacity="1.000000" stroke="#000000" stroke-linecap="round" stroke-linejoin="round" stroke-width="2.000000"
	d="
M914.500000,276.500000 
	C899.166687,276.500000 883.833313,276.500000 868.500000,276.500000 
"/>
<path fill="none" opacity="1.000000" stroke="#000000" stroke-linecap="round" stroke-linejoin="round" stroke-width="2.000000"
	d="
M264.500000,105.500000 
	C249.166672,105.500000 233.833328,105.500000 218.500000,105.500000 
"/>
<path fill="none" opacity="1.000000" stroke="#000000" stroke-linecap="round" stroke-linejoin="round" stroke-width="2.000000"
	d="
M354.500000,105.500000 
	C339.166656,105.500000 323.833344,105.500000 308.500000,105.500000 
"/>
<path fill="none" opacity="1.000000" stroke="#000000" stroke-linecap="round" stroke-linejoin="round" stroke-width="2.000000"
	d="
M864.500000,186.500000 
	C849.166687,186.500000 833.833313,186.500000 818.500000,186.500000 
"/>
<path fill="none" opacity="1.000000" stroke="#000000" stroke-linecap="round" stroke-linejoin="round" stroke-width="2.000000"
	d="
M263.500000,140.500000 
	C248.833328,140.500000 234.166672,140.500000 219.500000,140.500000 
"/>
<path fill="none" opacity="1.000000" stroke="#000000" stroke-linecap="round" stroke-linejoin="round" stroke-width="2.000000"
	d="
M353.500000,140.500000 
	C338.833344,140.500000 324.166656,140.500000 309.500000,140.500000 
"/>
<path fill="none" opacity="1.000000" stroke="#000000" stroke-linecap="round" stroke-linejoin="round" stroke-width="2.000000"
	d="
M1283.500000,42.500000 
	C1268.833374,42.500000 1254.166626,42.500000 1239.500000,42.500000 
"/>
<path fill="none" opacity="1.000000" stroke="#000000" stroke-linecap="round" stroke-linejoin="round" stroke-width="3.000000"
	d="
M535.500000,78.500000 
	C522.177246,79.511406 508.832642,78.777702 495.500000,79.000000 
"/>
<path fill="none" opacity="1.000000" stroke="#000000" stroke-linecap="round" stroke-linejoin="round" stroke-width="3.000000"
	d="
M1055.500000,153.500000 
	C1042.177246,154.511398 1028.832642,153.777710 1015.500000,154.000000 
"/>
<path fill="none" opacity="1.000000" stroke="#000000" stroke-linecap="round" stroke-linejoin="round" stroke-width="3.000000"
	d="
M1331.000000,455.000000 
	C1309.166626,455.000000 1287.333374,455.000000 1265.500000,455.000000 
"/>
<path fill="none" opacity="1.000000" stroke="#000000" stroke-linecap="round" stroke-linejoin="round" stroke-width="3.000000"
	d="
M535.500000,44.500000 
	C522.177246,43.488594 508.832642,44.222298 495.500000,44.000000 
"/>
<path fill="none" opacity="1.000000" stroke="#000000" stroke-linecap="round" stroke-linejoin="round" stroke-width="3.000000"
	d="
M725.500000,44.500000 
	C712.177246,43.488594 698.832642,44.222298 685.500000,44.000000 
"/>
<path fill="none" opacity="1.000000" stroke="#000000" stroke-linecap="round" stroke-linejoin="round" stroke-width="3.000000"
	d="
M725.500000,78.500000 
	C712.177246,79.511406 698.832642,78.777702 685.500000,79.000000 
"/>
<path fill="none" opacity="1.000000" stroke="#000000" stroke-linecap="round" stroke-linejoin="round" stroke-width="3.000000"
	d="
M1055.500000,119.500000 
	C1042.177246,118.488594 1028.832642,119.222298 1015.500000,119.000000 
"/>
<path fill="none" opacity="1.000000" stroke="#000000" stroke-linecap="round" stroke-linejoin="round" stroke-width="2.000000"
	d="
M891.500000,169.500000 
	C891.500000,193.333328 891.500000,217.166672 891.500000,241.000000 
"/>
<path fill="none" opacity="1.000000" stroke="#000000" stroke-linecap="round" stroke-linejoin="round" stroke-width="3.000000"
	d="
M961.500000,258.499969 
	C948.500000,258.666656 935.500000,258.833313 922.500000,258.999969 
"/>
<path fill="none" opacity="1.000000" stroke="#000000" stroke-linecap="round" stroke-linejoin="round" stroke-width="2.000000"
	d="
M732.500000,61.500000 
	C745.500000,61.500000 758.500000,61.500000 771.500000,61.500000 
"/>
<path fill="none" opacity="1.000000" stroke="#000000" stroke-linecap="round" stroke-linejoin="round" stroke-width="3.000000"
	d="
M640.500000,169.000000 
	C628.166687,169.000000 615.833313,169.000000 603.500000,169.000000 
"/>
<path fill="none" opacity="1.000000" stroke="#000000" stroke-linecap="round" stroke-linejoin="round" stroke-width="2.000000"
	d="
M981.500000,275.500000 
	C981.500000,286.166656 981.500000,296.833344 981.500000,307.500000 
"/>
<path fill="none" opacity="1.000000" stroke="#000000" stroke-linecap="round" stroke-linejoin="round" stroke-width="2.000000"
	d="
M362.500000,122.500000 
	C373.165375,122.749207 383.834198,122.178123 394.512207,122.785393 
	C396.379791,122.891602 396.845154,123.309677 397.500000,124.500000 
"/>
<path fill="none" opacity="1.000000" stroke="#000000" stroke-linecap="round" stroke-linejoin="round" stroke-width="2.000000"
	d="
M542.500000,61.500000 
	C553.833313,61.500000 565.166687,61.500000 576.500000,61.500000 
"/>
<path fill="none" opacity="1.000000" stroke="#000000" stroke-linecap="round" stroke-linejoin="round" stroke-width="3.000000"
	d="
M785.500000,75.500000 
	C783.880127,77.220039 783.980774,79.342712 783.983215,81.500015 
	C784.010010,105.166656 784.000000,128.833328 784.000000,152.500000 
"/>
<path fill="none" opacity="1.000000" stroke="#000000" stroke-linecap="round" stroke-linejoin="round" stroke-width="3.000000"
	d="
M572.500000,169.000000 
	C562.500000,169.000000 552.500000,169.000000 542.500000,169.000000 
"/>
<path fill="none" opacity="1.000000" stroke="#000000" stroke-linecap="round" stroke-linejoin="round" stroke-width="2.000000"
	d="
M1289.500000,46.500000 
	C1291.294067,49.068058 1291.629517,51.931278 1291.540771,55.001175 
	C1291.391724,60.163544 1291.500000,65.333336 1291.500000,70.500000 
"/>
<path fill="none" opacity="1.000000" stroke="#000000" stroke-linecap="round" stroke-linejoin="round" stroke-width="2.000000"
	d="
M534.500000,186.500000 
	C519.166687,186.500000 503.833344,186.500000 488.500000,186.500000 
"/>
<path fill="none" opacity="1.000000" stroke="#000000" stroke-linecap="round" stroke-linejoin="round" stroke-width="2.000000"
	d="
M694.500000,186.500000 
	C679.166687,186.500000 663.833313,186.500000 648.500000,186.500000 
"/>
<path fill="none" opacity="1.000000" stroke="#000000" stroke-linecap="round" stroke-linejoin="round" stroke-width="2.000000"
	d="
M1284.500000,396.500000 
	C1269.166626,396.500000 1253.833374,396.500000 1238.500000,396.500000 
"/>
<path fill="none" opacity="1.000000" stroke="#000000" stroke-linecap="round" stroke-linejoin="round" stroke-width="2.000000"
	d="
M272.500000,122.500000 
	C281.833344,122.467789 291.166656,123.675110 300.500000,122.500000 
"/>
<path fill="none" opacity="1.000000" stroke="#000000" stroke-linecap="round" stroke-linejoin="round" stroke-width="2.000000"
	d="
M1284.500000,77.500000 
	C1269.166626,77.500000 1253.833374,77.500000 1238.500000,77.500000 
"/>
<path fill="none" opacity="1.000000" stroke="#000000" stroke-linecap="round" stroke-linejoin="round" stroke-width="2.000000"
	d="
M914.500000,241.500000 
	C899.166687,241.500000 883.833313,241.500000 868.500000,241.500000 
"/>
<path fill="none" opacity="1.000000" stroke="#000000" stroke-linecap="round" stroke-linejoin="round" stroke-width="2.000000"
	d="
M1238.500000,361.500000 
	C1253.833374,361.500000 1269.166626,361.500000 1284.500000,361.500000 
"/>
<path fill="none" opacity="1.000000" stroke="#000000" stroke-linecap="round" stroke-linejoin="round" stroke-width="2.000000"
	d="
M1291.500000,368.500000 
	C1291.500000,375.500000 1291.500000,382.500000 1291.500000,389.500000 
"/>
<path fill="none" opacity="1.000000" stroke="#000000" stroke-linecap="round" stroke-linejoin="round" stroke-width="2.000000"
	d="
M861.500000,248.500000 
	C861.500000,255.500000 861.500000,262.500000 861.500000,269.500000 
"/>
<path fill="none" opacity="1.000000" stroke="#000000" stroke-linecap="round" stroke-linejoin="round" stroke-width="2.000000"
	d="
M1231.500000,368.500000 
	C1231.500000,375.500000 1231.500000,382.500000 1231.500000,389.500000 
"/>
<path fill="none" opacity="1.000000" stroke="#000000" stroke-linecap="round" stroke-linejoin="round" stroke-width="3.000000"
	d="
M887.500000,169.000000 
	C882.500000,169.000000 877.500000,169.000000 872.500000,169.000000 
"/>
<path fill="none" opacity="1.000000" stroke="#000000" stroke-linecap="round" stroke-linejoin="round" stroke-width="3.000000"
	d="
M187.500000,249.000000 
	C182.500000,249.000000 177.500000,249.000000 172.500000,249.000000 
"/>
<path fill="none" opacity="1.000000" stroke="#000000" stroke-linecap="round" stroke-linejoin="round" stroke-width="2.000000"
	d="
M1233.500000,46.500000 
	C1230.247192,50.976631 1231.780518,56.120773 1231.530396,61.001556 
	C1231.368530,64.159927 1231.500000,67.333336 1231.500000,70.500000 
"/>
<path fill="none" opacity="1.000000" stroke="#000000" stroke-linecap="round" stroke-linejoin="round" stroke-width="3.000000"
	d="
M1272.000000,265.500000 
	C1270.225098,259.683624 1265.535156,255.419952 1261.000000,255.500000 
	C1257.774292,255.556915 1253.066772,259.479889 1252.000000,263.000000 
	C1251.129150,265.873749 1253.482910,271.365845 1256.500000,273.500000 
	C1259.597412,275.691040 1263.944336,275.561340 1266.978882,272.975159 
	C1269.196655,271.085052 1270.531372,268.474823 1272.000000,266.000000 
"/>
<path fill="none" opacity="1.000000" stroke="#000000" stroke-linecap="round" stroke-linejoin="round" stroke-width="2.000000"
	d="
M361.500000,112.500000 
	C361.500000,117.833336 361.355774,123.172112 361.556824,128.497849 
	C361.668274,131.450272 361.075562,134.060562 359.500000,136.500000 
"/>
<path fill="none" opacity="1.000000" stroke="#000000" stroke-linecap="round" stroke-linejoin="round" stroke-width="2.000000"
	d="
M301.500000,112.500000 
	C301.500000,117.833336 301.644196,123.172112 301.443146,128.497849 
	C301.331696,131.450272 301.924438,134.060562 303.500000,136.500000 
"/>
<path fill="none" opacity="1.000000" stroke="#000000" stroke-linecap="round" stroke-linejoin="round" stroke-width="2.000000"
	d="
M271.500000,112.500000 
	C271.500000,117.833336 271.355804,123.172112 271.556854,128.497849 
	C271.668304,131.450272 271.075562,134.060562 269.500000,136.500000 
"/>
<path fill="none" opacity="1.000000" stroke="#000000" stroke-linecap="round" stroke-linejoin="round" stroke-width="2.000000"
	d="
M211.500000,112.500000 
	C211.500000,117.833336 211.644196,123.172112 211.443146,128.497849 
	C211.331680,131.450272 211.924454,134.060562 213.500000,136.500000 
"/>
<path fill="none" opacity="1.000000" stroke="#000000" stroke-linecap="round" stroke-linejoin="round" stroke-width="2.000000"
	d="
M921.500000,248.500000 
	C921.500000,255.500000 921.500000,262.500000 921.500000,269.500000 
"/>
<path fill="none" opacity="1.000000" stroke="#000000" stroke-linecap="round" stroke-linejoin="round" stroke-width="2.000000"
	d="
M171.500000,238.500000 
	C171.500000,245.500000 171.500000,252.500000 171.500000,259.500000 
"/>
<path fill="none" opacity="1.000000" stroke="#000000" stroke-linecap="round" stroke-linejoin="round" stroke-width="2.000000"
	d="
M871.500000,158.500000 
	C871.500000,165.500000 871.500000,172.500000 871.500000,179.500000 
"/>
<path fill="none" opacity="1.000000" stroke="#000000" stroke-linecap="round" stroke-linejoin="round" stroke-width="2.000000"
	d="
M111.500000,238.500000 
	C111.500000,245.500000 111.500000,252.500000 111.500000,259.500000 
"/>
<path fill="none" opacity="1.000000" stroke="#000000" stroke-linecap="round" stroke-linejoin="round" stroke-width="2.000000"
	d="
M811.500000,158.500000 
	C811.500000,165.500000 811.500000,172.500000 811.500000,179.500000 
"/>
<path fill="none" opacity="1.000000" stroke="#000000" stroke-linecap="round" stroke-linejoin="round" stroke-width="2.000000"
	d="
M701.500000,158.500000 
	C701.500000,165.500000 701.500000,172.500000 701.500000,179.500000 
"/>
<path fill="none" opacity="1.000000" stroke="#000000" stroke-linecap="round" stroke-linejoin="round" stroke-width="2.000000"
	d="
M641.500000,158.500000 
	C641.500000,165.500000 641.500000,172.500000 641.500000,179.500000 
"/>
<path fill="none" opacity="1.000000" stroke="#000000" stroke-linecap="round" stroke-linejoin="round" stroke-width="2.000000"
	d="
M541.500000,158.500000 
	C541.500000,165.500000 541.500000,172.500000 541.500000,179.500000 
"/>
<path fill="none" opacity="1.000000" stroke="#000000" stroke-linecap="round" stroke-linejoin="round" stroke-width="2.000000"
	d="
M481.500000,158.500000 
	C481.500000,165.500000 481.500000,172.500000 481.500000,179.500000 
"/>
<path fill="none" opacity="1.000000" stroke="#000000" stroke-linecap="round" stroke-linejoin="round" stroke-width="2.000000"
	d="
M481.500000,51.500000 
	C481.500000,58.166668 481.500000,64.833336 481.500000,71.500000 
"/>
<path fill="none" opacity="1.000000" stroke="#000000" stroke-linecap="round" stroke-linejoin="round" stroke-width="2.000000"
	d="
M541.500000,51.500000 
	C541.500000,58.166668 541.500000,64.833336 541.500000,71.500000 
"/>
<path fill="none" opacity="1.000000" stroke="#000000" stroke-linecap="round" stroke-linejoin="round" stroke-width="2.000000"
	d="
M671.500000,51.500000 
	C671.500000,58.166668 671.500000,64.833336 671.500000,71.500000 
"/>
<path fill="none" opacity="1.000000" stroke="#000000" stroke-linecap="round" stroke-linejoin="round" stroke-width="2.000000"
	d="
M731.500000,51.500000 
	C731.500000,58.166668 731.500000,64.833336 731.500000,71.500000 
"/>
<path fill="none" opacity="1.000000" stroke="#000000" stroke-linecap="round" stroke-linejoin="round" stroke-width="4.000000"
	d="
M1117.000000,60.000000 
	C1115.497559,66.489372 1112.363037,70.146225 1108.000000,70.499992 
	C1102.286133,70.963295 1098.072876,68.032364 1096.500000,62.499985 
	C1095.312622,58.323589 1098.311035,52.788036 1103.000000,50.499977 
	C1107.205444,48.447845 1110.775391,49.549541 1113.983643,54.011780 
	C1115.250122,55.773308 1116.333252,57.666679 1117.500000,59.500015 
"/>
<path fill="none" opacity="1.000000" stroke="#000000" stroke-linecap="round" stroke-linejoin="round" stroke-width="2.000000"
	d="
M1001.500000,126.500000 
	C1001.500000,133.166672 1001.500000,139.833328 1001.500000,146.500000 
"/>
<path fill="none" opacity="1.000000" stroke="#000000" stroke-linecap="round" stroke-linejoin="round" stroke-width="2.000000"
	d="
M1061.500000,126.500000 
	C1061.500000,133.166672 1061.500000,139.833328 1061.500000,146.500000 
"/>
<path fill="none" opacity="1.000000" stroke="#000000" stroke-linecap="round" stroke-linejoin="round" stroke-width="4.000000"
	d="
M584.500000,156.500000 
	C584.166626,157.666656 584.203247,159.250320 583.437622,159.929657 
	C579.595337,163.338486 580.450012,167.772537 580.535950,171.999268 
	C580.624268,176.345352 584.328369,179.500000 589.000000,179.500000 
	C593.671631,179.500000 597.375793,176.345352 597.464111,171.999268 
	C597.549988,167.772537 598.404663,163.338501 594.562378,159.929672 
	C593.796692,159.250320 593.833313,157.666672 593.500000,156.500000 
"/>
<path fill="none" opacity="1.000000" stroke="#000000" stroke-linecap="round" stroke-linejoin="round" stroke-width="4.000000"
	d="
M593.500000,159.500000 
	C590.500000,158.159332 587.500000,158.159332 584.500000,159.500000 
"/>
<path fill="none" opacity="1.000000" stroke="#000000" stroke-linecap="round" stroke-linejoin="round" stroke-width="4.000000"
	d="
M792.500000,165.000000 
	C792.071716,168.982483 794.121704,173.576950 789.509033,176.514206 
	C786.306702,178.553406 782.565674,177.967697 779.578796,177.195312 
	C777.158752,176.569489 775.208557,173.738922 775.323547,169.994583 
	C775.451294,165.836411 775.803101,161.667801 780.049805,160.723969 
	C784.405090,159.755981 789.532654,159.418839 792.500000,164.500000 
"/>
<path fill="none" opacity="1.000000" stroke="#000000" stroke-linecap="round" stroke-linejoin="round" stroke-width="2.000000"
	d="
M56.500000,426.500000 
	C58.365349,429.023315 61.819099,428.568359 64.189384,430.523163 
	C61.776890,432.352509 58.500000,432.229156 56.500000,434.500000 
"/>
<path fill="none" opacity="1.000000" stroke="#000000" stroke-linecap="round" stroke-linejoin="round" stroke-width="3.000000"
	d="
M64.500000,269.500000 
	C63.311741,272.601898 60.189976,269.903259 58.375217,271.617889 
	C58.941273,276.074280 62.532204,273.089386 64.500000,274.000000 
"/>
<path fill="none" opacity="1.000000" stroke="#000000" stroke-linecap="round" stroke-linejoin="round" stroke-width="3.000000"
	d="
M810.500000,169.000000 
	C806.500000,169.000000 802.500000,169.000000 798.500000,169.000000 
"/>
<path fill="none" opacity="1.000000" stroke="#000000" stroke-linecap="round" stroke-linejoin="round" stroke-width="3.000000"
	d="
M64.500000,283.000000 
	C62.166668,283.000000 59.833332,283.000000 57.500000,283.000000 
"/>
<path fill="none" opacity="1.000000" stroke="#000000" stroke-linecap="round" stroke-linejoin="round" stroke-width="3.000000"
	d="
M784.000000,63.000000 
	C781.450378,64.418190 780.731201,66.962776 780.000000,69.500000 
"/>
<path fill="none" opacity="1.000000" stroke="#000000" stroke-linecap="round" stroke-linejoin="round" stroke-width="3.000000"
	d="
M780.000000,53.500000 
	C780.731201,56.037220 781.450378,58.581810 784.000000,60.000000 
"/>
<path fill="none" opacity="1.000000" stroke="#000000" stroke-linecap="round" stroke-linejoin="round" stroke-width="3.000000"
	d="
M585.000000,53.500000 
	C585.731201,56.037220 586.450378,58.581810 589.000000,60.000000 
"/>
<path fill="none" opacity="1.000000" stroke="#000000" stroke-linecap="round" stroke-linejoin="round" stroke-width="3.000000"
	d="
M405.500000,114.500000 
	C405.091095,117.515045 406.440002,119.583595 409.000000,121.000000 
"/>
<path fill="none" opacity="1.000000" stroke="#000000" stroke-linecap="round" stroke-linejoin="round" stroke-width="3.000000"
	d="
M589.000000,63.000000 
	C586.450378,64.418190 585.731201,66.962776 585.000000,69.500000 
"/>
<path fill="none" opacity="1.000000" stroke="#000000" stroke-linecap="round" stroke-linejoin="round" stroke-width="4.000000"
	d="
M987.500000,251.500000 
	C985.303711,253.665070 984.285767,256.840179 980.344055,258.500000 
	C984.285767,260.159821 985.303711,263.334930 987.500000,265.500000 
"/>
<path fill="none" opacity="1.000000" stroke="#000000" stroke-linecap="round" stroke-linejoin="round" stroke-width="3.000000"
	d="
M412.500000,114.500000 
	C414.117279,116.433472 411.925385,117.688934 411.363312,118.938515 
	C409.564636,122.937378 407.166656,126.666656 405.000000,130.500000 
"/>
<path fill="none" opacity="1.000000" stroke="#000000" stroke-linecap="round" stroke-linejoin="round" stroke-width="3.000000"
	d="
M593.000000,53.500000 
	C592.753052,56.709869 590.012512,58.672920 588.766052,61.500000 
	C590.012512,64.327080 592.753052,66.290131 593.000000,69.500000 
"/>
<path fill="none" opacity="1.000000" stroke="#000000" stroke-linecap="round" stroke-linejoin="round" stroke-width="3.000000"
	d="
M788.000000,53.500000 
	C787.753052,56.709869 785.012512,58.672920 783.766052,61.500000 
	C785.012512,64.327080 787.753052,66.290131 788.000000,69.500000 
"/>
<path fill="none" opacity="1.000000" stroke="#000000" stroke-linecap="round" stroke-linejoin="round" stroke-width="3.000000"
	d="
M409.500000,125.000000 
	C411.255035,126.458923 412.425201,128.290024 413.000000,130.500000 
"/>
<path fill="none" opacity="1.000000" stroke="#000000" stroke-linecap="round" stroke-linejoin="round" stroke-width="2.000000"
	d="
M39.500000,353.500000 
	C38.130863,355.727417 37.715912,357.668549 41.000000,358.500000 
"/>
<path fill="none" opacity="1.000000" stroke="#000000" stroke-linecap="round" stroke-linejoin="round" stroke-width="3.000000"
	d="
M64.500000,471.000031 
	C62.500000,471.166687 60.500000,471.333344 58.500000,471.500031 
"/>
<path fill="none" opacity="1.000000" stroke="#000000" stroke-linecap="round" stroke-linejoin="round" stroke-width="2.000000"
	d="
M57.500000,471.500000 
	C59.023148,473.453705 61.511650,473.476715 63.834446,474.261963 
	C61.615143,475.730286 58.984371,475.468750 57.500000,477.500000 
"/>
<path fill="none" opacity="1.000000" stroke="#000000" stroke-linecap="round" stroke-linejoin="round" stroke-width="3.000000"
	d="
M59.000000,477.500000 
	C60.771816,478.343353 62.661362,477.891693 64.500000,478.000000 
"/>
<path fill="none" opacity="1.000000" stroke="#000000" stroke-linecap="round" stroke-linejoin="round" stroke-width="3.000000"
	d="
M64.500000,77.000000 
	C62.286209,77.800171 57.906532,74.887390 58.500000,80.500000 
"/>
<path fill="none" opacity="1.000000" stroke="#000000" stroke-linecap="round" stroke-linejoin="round" stroke-width="2.000000"
	d="
M44.500004,199.500000 
	C43.500004,200.333344 42.616726,201.464676 41.466755,201.915115 
	C40.345345,202.354324 38.878155,202.243683 38.500000,200.500000 
"/>
<path fill="none" opacity="1.000000" stroke="#000000" stroke-linecap="round" stroke-linejoin="round" stroke-width="3.000000"
	d="
M44.500000,229.000000 
	C42.286209,229.800171 37.906532,226.887390 38.500000,232.500000 
"/>
<path fill="none" opacity="1.000000" stroke="#000000" stroke-linecap="round" stroke-linejoin="round" stroke-width="2.000000"
	d="
M603.000000,170.000000 
	C601.500610,171.542419 600.854980,174.152023 598.000000,174.000000 
"/>
<path fill="none" opacity="1.000000" stroke="#000000" stroke-linecap="round" stroke-linejoin="round" stroke-width="2.000000"
	d="
M598.000000,164.000000 
	C600.854980,163.847977 601.500610,166.457581 603.000000,168.000000 
"/>
<path fill="none" opacity="1.000000" stroke="#000000" stroke-linecap="round" stroke-linejoin="round" stroke-width="2.000000"
	d="
M575.500000,170.500000 
	C576.644226,172.124054 577.479248,174.145721 580.000000,174.000000 
"/>
<path fill="none" opacity="1.000000" stroke="#000000" stroke-linecap="round" stroke-linejoin="round" stroke-width="2.000000"
	d="
M39.500000,346.500000 
	C38.853497,348.090363 37.042519,349.810089 39.891403,350.997772 
	C43.071686,351.065643 39.929672,347.247711 42.723145,347.131958 
	C44.390919,346.853943 44.620621,348.036835 44.500000,349.500000 
"/>
<path fill="none" opacity="1.000000" stroke="#000000" stroke-linecap="round" stroke-linejoin="round" stroke-width="2.000000"
	d="
M63.000000,388.000000 
	C60.181477,388.947723 61.190281,391.080780 62.100864,392.432037 
	C63.090809,393.901062 64.064682,392.828369 64.500000,391.500000 
"/>
<path fill="none" opacity="1.000000" stroke="#000000" stroke-linecap="round" stroke-linejoin="round" stroke-width="2.000000"
	d="
M580.000000,164.000000 
	C577.479248,163.854279 576.644226,165.875946 575.500000,167.500000 
"/>
<path fill="none" opacity="1.000000" stroke="#000000" stroke-linecap="round" stroke-linejoin="round" stroke-width="2.000000"
	d="
M44.500000,159.000000 
	C41.604115,158.630859 38.091991,157.205322 38.500000,162.500000 
"/>
<path fill="none" opacity="1.000000" stroke="#000000" stroke-linecap="round" stroke-linejoin="round" stroke-width="2.000000"
	d="
M41.500000,156.500000 
	C41.500000,158.000000 41.294437,159.535400 41.545300,160.992203 
	C41.987686,163.561218 43.022709,164.197083 44.500000,161.500000 
"/>
<path fill="none" opacity="1.000000" stroke="#000000" stroke-linecap="round" stroke-linejoin="round" stroke-width="3.000000"
	d="
M59.000000,406.500000 
	C59.436760,410.405792 61.579742,410.557892 64.500000,409.000000 
"/>
<path fill="none" opacity="1.000000" stroke="#000000" stroke-linecap="round" stroke-linejoin="round" stroke-width="4.000000"
	d="
M43.000000,355.500000 
	C40.593098,357.809113 41.768559,360.789948 41.500000,363.500000 
"/>
<path fill="none" opacity="1.000000" stroke="#000000" stroke-linecap="round" stroke-linejoin="round" stroke-width="3.000000"
	d="
M954.000000,256.000000 
	C958.003113,258.487427 955.020569,260.437469 953.500000,262.500000 
"/>
<path fill="none" opacity="1.000000" stroke="#000000" stroke-linecap="round" stroke-linejoin="round" stroke-width="3.000000"
	d="
M1223.500000,56.500000 
	C1225.020508,58.562519 1228.003052,60.512585 1224.000000,63.000000 
"/>
<path fill="none" opacity="1.000000" stroke="#000000" stroke-linecap="round" stroke-linejoin="round" stroke-width="2.000000"
	d="
M1111.000000,70.500000 
	C1111.636230,72.259422 1109.945923,73.146378 1109.500000,74.500000 
"/>
<path fill="none" opacity="1.000000" stroke="#000000" stroke-linecap="round" stroke-linejoin="round" stroke-width="2.000000"
	d="
M1083.500000,56.500000 
	C1083.622925,58.174061 1086.257446,58.054169 1086.000000,60.000000 
"/>
<path fill="none" opacity="1.000000" stroke="#000000" stroke-linecap="round" stroke-linejoin="round" stroke-width="3.000000"
	d="
M670.500000,61.500000 
	C667.485107,60.909645 665.625122,63.014175 663.500000,64.500000 
"/>
<path fill="none" opacity="1.000000" stroke="#000000" stroke-linecap="round" stroke-linejoin="round" stroke-width="2.000000"
	d="
M1102.000000,70.500000 
	C1101.363770,72.259422 1103.054077,73.146378 1103.500000,74.500000 
"/>
<path fill="none" opacity="1.000000" stroke="#000000" stroke-linecap="round" stroke-linejoin="round" stroke-width="3.000000"
	d="
M66.500000,127.000000 
	C63.833332,127.155472 61.166668,128.309402 58.500000,127.000000 
"/>
<path fill="none" opacity="1.000000" stroke="#000000" stroke-linecap="round" stroke-linejoin="round" stroke-width="3.000000"
	d="
M389.000000,120.000000 
	C393.003082,122.487419 390.020569,124.437477 388.500000,126.500000 
"/>
<path fill="none" opacity="1.000000" stroke="#000000" stroke-linecap="round" stroke-linejoin="round" stroke-width="3.000000"
	d="
M294.000000,120.000000 
	C298.003082,122.487419 295.020569,124.437477 293.500000,126.500000 
"/>
<path fill="none" opacity="1.000000" stroke="#000000" stroke-linecap="round" stroke-linejoin="round" stroke-width="3.000000"
	d="
M204.000000,120.000000 
	C208.003082,122.487419 205.020554,124.437477 203.500000,126.500000 
"/>
<path fill="none" opacity="1.000000" stroke="#000000" stroke-linecap="round" stroke-linejoin="round" stroke-width="3.000000"
	d="
M1258.500000,353.500000 
	C1261.126587,357.301086 1261.873413,357.301086 1264.500000,353.500000 
"/>
<path fill="none" opacity="1.000000" stroke="#000000" stroke-linecap="round" stroke-linejoin="round" stroke-width="3.000000"
	d="
M993.500000,133.500000 
	C997.301086,136.126587 997.301086,136.873413 993.500000,139.500000 
"/>
<path fill="none" opacity="1.000000" stroke="#000000" stroke-linecap="round" stroke-linejoin="round" stroke-width="3.000000"
	d="
M763.500000,58.500000 
	C767.301086,61.126583 767.301086,61.873417 763.500000,64.500000 
"/>
<path fill="none" opacity="1.000000" stroke="#000000" stroke-linecap="round" stroke-linejoin="round" stroke-width="3.000000"
	d="
M1264.500000,245.500000 
	C1264.271484,247.098663 1262.992676,247.947113 1261.983154,249.017960 
	C1259.910522,248.756104 1259.158936,247.174347 1258.500000,245.500000 
"/>
<path fill="none" opacity="1.000000" stroke="#000000" stroke-linecap="round" stroke-linejoin="round" stroke-width="3.000000"
	d="
M473.500000,58.500000 
	C477.301086,61.126587 477.301086,61.873417 473.500000,64.500000 
"/>
<path fill="none" opacity="1.000000" stroke="#000000" stroke-linecap="round" stroke-linejoin="round" stroke-width="2.000000"
	d="
M56.500000,279.500000 
	C56.500000,281.500000 56.500000,283.500000 56.500000,285.500000 
"/>
<path fill="none" opacity="1.000000" stroke="#000000" stroke-linecap="round" stroke-linejoin="round" stroke-width="2.000000"
	d="
M59.500000,389.000000 
	C58.017078,389.838226 58.605648,391.268280 58.500000,392.500000 
"/>
<path fill="none" opacity="1.000000" stroke="#000000" stroke-linecap="round" stroke-linejoin="round" stroke-width="3.000000"
	d="
M568.500000,58.500000 
	C572.301086,61.126583 572.301086,61.873417 568.500000,64.500000 
"/>
<path fill="none" opacity="1.000000" stroke="#000000" stroke-linecap="round" stroke-linejoin="round" stroke-width="3.000000"
	d="
M894.500000,233.500000 
	C891.873413,237.301086 891.126587,237.301086 888.500000,233.500000 
"/>
<path fill="none" opacity="1.000000" stroke="#000000" stroke-linecap="round" stroke-linejoin="round" stroke-width="3.000000"
	d="
M1110.500000,85.500000 
	C1108.901367,85.271469 1108.052856,83.992615 1107.000000,83.000183 
	C1104.936646,82.819290 1104.558960,85.672829 1102.500000,85.500000 
"/>
<path fill="none" opacity="1.000000" stroke="#000000" stroke-linecap="round" stroke-linejoin="round" stroke-width="3.000000"
	d="
M44.500000,315.000000 
	C42.500000,316.935272 40.500000,314.840942 38.500000,315.000000 
"/>
<path fill="none" opacity="1.000000" stroke="#000000" stroke-linecap="round" stroke-linejoin="round" stroke-width="2.000000"
	d="
M41.500000,230.000000 
	C41.433090,231.133408 41.247459,232.461716 42.521332,232.943619 
	C43.534931,233.327026 44.335365,232.669373 44.500000,231.500000 
"/>
<path fill="none" opacity="1.000000" stroke="#000000" stroke-linecap="round" stroke-linejoin="round" stroke-width="2.000000"
	d="
M61.500000,78.000000 
	C61.433090,79.133415 61.247456,80.461716 62.521332,80.943604 
	C63.534927,81.327034 64.335365,80.669373 64.500000,79.500000 
"/>
<path fill="none" opacity="1.000000" stroke="#000000" stroke-linecap="round" stroke-linejoin="round" stroke-width="3.000000"
	d="
M506.000000,544.000000 
	C506.972748,544.863953 507.945526,545.727905 509.000000,546.664429 
	C510.054474,545.727905 511.027252,544.863953 512.000000,544.000000 
"/>
<path fill="none" opacity="1.000000" stroke="#000000" stroke-linecap="round" stroke-linejoin="round" stroke-width="3.000000"
	d="
M1034.000000,305.000000 
	C1036.742798,307.000000 1036.742798,309.000000 1034.000000,311.000000 
"/>
<path fill="none" opacity="1.000000" stroke="#000000" stroke-linecap="round" stroke-linejoin="round" stroke-width="3.000000"
	d="
M634.000000,166.000000 
	C636.742798,168.000000 636.742798,170.000000 634.000000,172.000000 
"/>
<path fill="none" opacity="1.000000" stroke="#000000" stroke-linecap="round" stroke-linejoin="round" stroke-width="3.000000"
	d="
M1304.000000,452.000000 
	C1306.742798,454.000000 1306.742798,456.000000 1304.000000,458.000000 
"/>
<path fill="none" opacity="1.000000" stroke="#000000" stroke-linecap="round" stroke-linejoin="round" stroke-width="3.000000"
	d="
M804.000000,166.000000 
	C806.742798,168.000000 806.742798,170.000000 804.000000,172.000000 
"/>
<path fill="none" opacity="1.000000" stroke="#000000" stroke-linecap="round" stroke-linejoin="round" stroke-width="3.000000"
	d="
M474.000000,166.000000 
	C476.742798,168.000000 476.742798,170.000000 474.000000,172.000000 
"/>
<path fill="none" opacity="1.000000" stroke="#000000" stroke-linecap="round" stroke-linejoin="round" stroke-width="3.000000"
	d="
M104.000000,246.000000 
	C106.742798,248.000000 106.742798,250.000000 104.000000,252.000000 
"/>
<path fill="none" opacity="1.000000" stroke="#000000" stroke-linecap="round" stroke-linejoin="round" stroke-width="3.000000"
	d="
M670.000000,534.000000 
	C672.000000,536.742798 674.000000,536.742798 676.000000,534.000000 
"/>
<path fill="none" opacity="1.000000" stroke="#000000" stroke-linecap="round" stroke-linejoin="round" stroke-width="3.000000"
	d="
M592.000000,144.000000 
	C590.000000,146.742798 588.000000,146.742798 586.000000,144.000000 
"/>
<path fill="none" opacity="1.000000" stroke="#000000" stroke-linecap="round" stroke-linejoin="round" stroke-width="2.000000"
	d="
M2.500000,1.500000 
	C1.785888,1.452554 1.481854,1.785403 1.493671,2.500105 
	C1.515710,3.833074 1.500000,5.166667 1.500000,6.500000 
	C1.500000,234.666672 1.500000,462.833344 1.500000,691.250000 
	C478.166565,691.250000 954.833252,691.250000 1431.500000,691.250000 
	C1431.500000,461.666656 1431.500000,231.833328 1431.500000,1.500000 
	C955.333435,1.500000 479.166718,1.500000 3.000000,1.500000 
"/>
</svg>